<?xml version="1.0" encoding="UTF-8"?>
<svg width="100%" height="100%" viewBox="0 0 24 24" fill="white" xmlns="http://www.w3.org/2000/svg">
  <path d="M20.4054 3.4875C18.1607 1.2375 15.1714 0 11.9946 0C5.4375 0 0.101786 5.33571 0.101786 11.8929C0.101786 13.9875 0.648214 16.0339 1.69286 17.8393L0 24L6.30536 22.3393C8.03571 23.3036 9.99107 23.8071 11.9893 23.8071H11.9946C18.5464 23.8071 24 18.4714 24 11.9143C24 8.73214 22.65 5.7375 20.4054 3.4875ZM11.9946 21.8143C10.2161 21.8143 8.475 21.3321 6.93214 20.4214L6.57857 20.2071L2.84464 21.1821L3.83571 17.5446L3.59464 17.1804C2.59286 15.5786 2.07321 13.7625 2.07321 11.8929C2.07321 6.43929 6.54107 2 11.9946 2C14.6411 2 17.1214 3.02679 18.9857 4.89643C20.85 6.76607 21.9321 9.24643 21.9268 11.9143C21.9268 17.3732 17.4482 21.8143 11.9946 21.8143ZM17.4214 14.3839C17.1375 14.2446 15.6696 13.5232 15.4071 13.4304C15.1446 13.3375 14.9518 13.2929 14.7589 13.5768C14.5661 13.8607 14.0036 14.5339 13.8321 14.7268C13.6607 14.9196 13.4893 14.9411 13.2054 14.8018C12.9214 14.6625 11.9625 14.3464 10.8375 13.3375C9.95357 12.5464 9.35893 11.5768 9.1875 11.2929C9.01607 11.0089 9.16607 10.8482 9.31071 10.7036C9.44464 10.5696 9.60536 10.3554 9.75536 10.1839C9.90536 10.0125 9.95 9.88393 10.0429 9.69107C10.1357 9.49821 10.0893 9.32679 10.0179 9.1875C9.94643 9.04821 9.35357 7.57500 9.11786 7.00714C8.88214 6.45536 8.64107 6.53571 8.46429 6.52500C8.29286 6.51429 8.1 6.51429 7.90714 6.51429C7.71429 6.51429 7.40714 6.58571 7.14464 6.86964C6.88214 7.15357 6.11786 7.875 6.11786 9.34821C6.11786 10.8214 7.16607 12.2464 7.31607 12.4393C7.46607 12.6321 9.35357 15.5357 12.2357 16.8482C12.9643 17.1643 13.5375 17.3464 13.9875 17.4857C14.7375 17.7161 15.4179 17.6804 15.9589 17.6071C16.5589 17.525 17.7482 16.8804 17.9839 16.2214C18.2196 15.5625 18.2196 15.0054 18.1482 14.8875C18.0768 14.7696 17.8839 14.7 17.4214 14.3839Z"/>
</svg> 